<mxfile host="Electron" agent="Mozilla/5.0 (Windows NT 10.0; Win64; x64) AppleWebKit/537.36 (KHTML, like Gecko) draw.io/26.1.1 Chrome/132.0.6834.210 Electron/34.3.3 Safari/537.36" version="26.1.1">
  <diagram name="Page-1" id="2YBvvXClWsGukQMizWep">
    <mxGraphModel dx="1613" dy="776" grid="1" gridSize="10" guides="1" tooltips="1" connect="1" arrows="1" fold="1" page="1" pageScale="1000" pageWidth="850" pageHeight="1100" math="0" shadow="0">
      <root>
        <mxCell id="0" />
        <mxCell id="1" parent="0" />
        <mxCell id="aM9ryv3xv72pqoxQDRHE-1" value=":SystemManager" style="shape=umlLifeline;perimeter=lifelinePerimeter;whiteSpace=wrap;html=1;container=0;dropTarget=0;collapsible=0;recursiveResize=0;outlineConnect=0;portConstraint=eastwest;newEdgeStyle={&quot;edgeStyle&quot;:&quot;elbowEdgeStyle&quot;,&quot;elbow&quot;:&quot;vertical&quot;,&quot;curved&quot;:0,&quot;rounded&quot;:0};" parent="1" vertex="1">
          <mxGeometry x="630" y="170" width="100" height="900" as="geometry" />
        </mxCell>
        <mxCell id="aM9ryv3xv72pqoxQDRHE-2" value="" style="html=1;points=[];perimeter=orthogonalPerimeter;outlineConnect=0;targetShapes=umlLifeline;portConstraint=eastwest;newEdgeStyle={&quot;edgeStyle&quot;:&quot;elbowEdgeStyle&quot;,&quot;elbow&quot;:&quot;vertical&quot;,&quot;curved&quot;:0,&quot;rounded&quot;:0};" parent="aM9ryv3xv72pqoxQDRHE-1" vertex="1">
          <mxGeometry x="45" y="130" width="10" height="710" as="geometry" />
        </mxCell>
        <mxCell id="aM9ryv3xv72pqoxQDRHE-5" value=":Report" style="shape=umlLifeline;perimeter=lifelinePerimeter;whiteSpace=wrap;html=1;container=0;dropTarget=0;collapsible=0;recursiveResize=0;outlineConnect=0;portConstraint=eastwest;newEdgeStyle={&quot;edgeStyle&quot;:&quot;elbowEdgeStyle&quot;,&quot;elbow&quot;:&quot;vertical&quot;,&quot;curved&quot;:0,&quot;rounded&quot;:0};" parent="1" vertex="1">
          <mxGeometry x="810" y="170" width="100" height="910" as="geometry" />
        </mxCell>
        <mxCell id="aM9ryv3xv72pqoxQDRHE-6" value="" style="html=1;points=[];perimeter=orthogonalPerimeter;outlineConnect=0;targetShapes=umlLifeline;portConstraint=eastwest;newEdgeStyle={&quot;edgeStyle&quot;:&quot;elbowEdgeStyle&quot;,&quot;elbow&quot;:&quot;vertical&quot;,&quot;curved&quot;:0,&quot;rounded&quot;:0};" parent="aM9ryv3xv72pqoxQDRHE-5" vertex="1">
          <mxGeometry x="45" y="200" width="10" height="170" as="geometry" />
        </mxCell>
        <mxCell id="Ls10ijSEjIT9bccqlVy2-1" value="System" style="shape=umlActor;verticalLabelPosition=bottom;verticalAlign=top;html=1;outlineConnect=0;" vertex="1" parent="1">
          <mxGeometry x="480" y="160" width="30" height="60" as="geometry" />
        </mxCell>
        <mxCell id="Ls10ijSEjIT9bccqlVy2-2" value=":AuthorityService" style="shape=umlLifeline;perimeter=lifelinePerimeter;whiteSpace=wrap;html=1;container=0;dropTarget=0;collapsible=0;recursiveResize=0;outlineConnect=0;portConstraint=eastwest;newEdgeStyle={&quot;edgeStyle&quot;:&quot;elbowEdgeStyle&quot;,&quot;elbow&quot;:&quot;vertical&quot;,&quot;curved&quot;:0,&quot;rounded&quot;:0};" vertex="1" parent="1">
          <mxGeometry x="950" y="170" width="100" height="910" as="geometry" />
        </mxCell>
        <mxCell id="Ls10ijSEjIT9bccqlVy2-4" value=":NotificationSender" style="shape=umlLifeline;perimeter=lifelinePerimeter;whiteSpace=wrap;html=1;container=0;dropTarget=0;collapsible=0;recursiveResize=0;outlineConnect=0;portConstraint=eastwest;newEdgeStyle={&quot;edgeStyle&quot;:&quot;elbowEdgeStyle&quot;,&quot;elbow&quot;:&quot;vertical&quot;,&quot;curved&quot;:0,&quot;rounded&quot;:0};" vertex="1" parent="1">
          <mxGeometry x="1110" y="170" width="110" height="910" as="geometry" />
        </mxCell>
        <mxCell id="Ls10ijSEjIT9bccqlVy2-6" value=":Notification" style="shape=umlLifeline;perimeter=lifelinePerimeter;whiteSpace=wrap;html=1;container=0;dropTarget=0;collapsible=0;recursiveResize=0;outlineConnect=0;portConstraint=eastwest;newEdgeStyle={&quot;edgeStyle&quot;:&quot;elbowEdgeStyle&quot;,&quot;elbow&quot;:&quot;vertical&quot;,&quot;curved&quot;:0,&quot;rounded&quot;:0};" vertex="1" parent="1">
          <mxGeometry x="1290" y="170" width="110" height="910" as="geometry" />
        </mxCell>
        <mxCell id="Ls10ijSEjIT9bccqlVy2-7" value="" style="html=1;points=[];perimeter=orthogonalPerimeter;outlineConnect=0;targetShapes=umlLifeline;portConstraint=eastwest;newEdgeStyle={&quot;edgeStyle&quot;:&quot;elbowEdgeStyle&quot;,&quot;elbow&quot;:&quot;vertical&quot;,&quot;curved&quot;:0,&quot;rounded&quot;:0};" vertex="1" parent="Ls10ijSEjIT9bccqlVy2-6">
          <mxGeometry x="50" y="795" width="10" height="90" as="geometry" />
        </mxCell>
        <mxCell id="Ls10ijSEjIT9bccqlVy2-8" value="" style="endArrow=none;dashed=1;html=1;dashPattern=1 3;strokeWidth=2;rounded=0;" edge="1" parent="1" source="Ls10ijSEjIT9bccqlVy2-1">
          <mxGeometry width="50" height="50" relative="1" as="geometry">
            <mxPoint x="890" y="390" as="sourcePoint" />
            <mxPoint x="490" y="790" as="targetPoint" />
          </mxGeometry>
        </mxCell>
        <mxCell id="Ls10ijSEjIT9bccqlVy2-9" value="" style="endArrow=classic;html=1;rounded=0;" edge="1" parent="1" target="aM9ryv3xv72pqoxQDRHE-1">
          <mxGeometry width="50" height="50" relative="1" as="geometry">
            <mxPoint x="500" y="340" as="sourcePoint" />
            <mxPoint x="940" y="390" as="targetPoint" />
          </mxGeometry>
        </mxCell>
        <mxCell id="Ls10ijSEjIT9bccqlVy2-10" value="notifyAuthorities(reportId)" style="text;html=1;align=center;verticalAlign=middle;whiteSpace=wrap;rounded=0;" vertex="1" parent="1">
          <mxGeometry x="510" y="305" width="160" height="30" as="geometry" />
        </mxCell>
        <mxCell id="Ls10ijSEjIT9bccqlVy2-11" value="" style="html=1;points=[];perimeter=orthogonalPerimeter;outlineConnect=0;targetShapes=umlLifeline;portConstraint=eastwest;newEdgeStyle={&quot;edgeStyle&quot;:&quot;elbowEdgeStyle&quot;,&quot;elbow&quot;:&quot;vertical&quot;,&quot;curved&quot;:0,&quot;rounded&quot;:0};" vertex="1" parent="1">
          <mxGeometry x="490" y="270" width="10" height="140" as="geometry" />
        </mxCell>
        <mxCell id="Ls10ijSEjIT9bccqlVy2-12" value="" style="endArrow=classic;html=1;rounded=0;" edge="1" parent="1">
          <mxGeometry width="50" height="50" relative="1" as="geometry">
            <mxPoint x="680" y="425" as="sourcePoint" />
            <mxPoint x="860" y="425" as="targetPoint" />
          </mxGeometry>
        </mxCell>
        <mxCell id="Ls10ijSEjIT9bccqlVy2-13" value="getRiskScore()" style="text;html=1;align=center;verticalAlign=middle;whiteSpace=wrap;rounded=0;" vertex="1" parent="1">
          <mxGeometry x="690" y="390" width="160" height="30" as="geometry" />
        </mxCell>
        <mxCell id="Ls10ijSEjIT9bccqlVy2-14" value="" style="endArrow=classic;html=1;rounded=0;" edge="1" parent="1">
          <mxGeometry width="50" height="50" relative="1" as="geometry">
            <mxPoint x="680" y="505" as="sourcePoint" />
            <mxPoint x="860" y="505" as="targetPoint" />
          </mxGeometry>
        </mxCell>
        <mxCell id="Ls10ijSEjIT9bccqlVy2-15" value="getRiskCategory()" style="text;html=1;align=center;verticalAlign=middle;whiteSpace=wrap;rounded=0;" vertex="1" parent="1">
          <mxGeometry x="690" y="470" width="160" height="30" as="geometry" />
        </mxCell>
        <mxCell id="Ls10ijSEjIT9bccqlVy2-16" value="" style="endArrow=classic;html=1;rounded=0;" edge="1" parent="1" target="Ls10ijSEjIT9bccqlVy2-3">
          <mxGeometry width="50" height="50" relative="1" as="geometry">
            <mxPoint x="679.5" y="600" as="sourcePoint" />
            <mxPoint x="980" y="600" as="targetPoint" />
          </mxGeometry>
        </mxCell>
        <mxCell id="Ls10ijSEjIT9bccqlVy2-17" value="canHandle(riskCategory)" style="text;html=1;align=center;verticalAlign=middle;whiteSpace=wrap;rounded=0;" vertex="1" parent="1">
          <mxGeometry x="700" y="570" width="150" height="30" as="geometry" />
        </mxCell>
        <mxCell id="Ls10ijSEjIT9bccqlVy2-20" value="" style="endArrow=classic;html=1;rounded=0;" edge="1" parent="1" target="Ls10ijSEjIT9bccqlVy2-5">
          <mxGeometry width="50" height="50" relative="1" as="geometry">
            <mxPoint x="679.5" y="845" as="sourcePoint" />
            <mxPoint x="1130" y="845" as="targetPoint" />
          </mxGeometry>
        </mxCell>
        <mxCell id="Ls10ijSEjIT9bccqlVy2-23" value="createNotification(service, report)" style="text;html=1;align=center;verticalAlign=middle;whiteSpace=wrap;rounded=0;" vertex="1" parent="1">
          <mxGeometry x="690" y="815" width="190" height="30" as="geometry" />
        </mxCell>
        <mxCell id="Ls10ijSEjIT9bccqlVy2-24" value="Authority" style="html=1;verticalAlign=bottom;endArrow=open;dashed=1;endSize=8;curved=0;rounded=0;" edge="1" parent="1">
          <mxGeometry relative="1" as="geometry">
            <mxPoint x="999.5" y="650" as="sourcePoint" />
            <mxPoint x="679.5" y="650" as="targetPoint" />
          </mxGeometry>
        </mxCell>
        <mxCell id="Ls10ijSEjIT9bccqlVy2-25" value="Notification" style="html=1;verticalAlign=bottom;endArrow=open;dashed=1;endSize=8;curved=0;rounded=0;" edge="1" parent="1" source="Ls10ijSEjIT9bccqlVy2-5">
          <mxGeometry relative="1" as="geometry">
            <mxPoint x="1171" y="895" as="sourcePoint" />
            <mxPoint x="680.5" y="895" as="targetPoint" />
          </mxGeometry>
        </mxCell>
        <mxCell id="Ls10ijSEjIT9bccqlVy2-26" value="" style="endArrow=classic;html=1;rounded=0;" edge="1" parent="1" target="Ls10ijSEjIT9bccqlVy2-5">
          <mxGeometry width="50" height="50" relative="1" as="geometry">
            <mxPoint x="680.5" y="945" as="sourcePoint" />
            <mxPoint x="1130" y="945" as="targetPoint" />
          </mxGeometry>
        </mxCell>
        <mxCell id="Ls10ijSEjIT9bccqlVy2-27" value="send(notification)" style="text;html=1;align=center;verticalAlign=middle;whiteSpace=wrap;rounded=0;" vertex="1" parent="1">
          <mxGeometry x="680.5" y="915" width="190" height="30" as="geometry" />
        </mxCell>
        <mxCell id="Ls10ijSEjIT9bccqlVy2-28" value="" style="endArrow=classic;html=1;rounded=0;exitX=0.48;exitY=0.714;exitDx=0;exitDy=0;exitPerimeter=0;" edge="1" parent="1" target="Ls10ijSEjIT9bccqlVy2-7">
          <mxGeometry width="50" height="50" relative="1" as="geometry">
            <mxPoint x="1174.8000000000002" y="985.0000000000001" as="sourcePoint" />
            <mxPoint x="1310" y="985" as="targetPoint" />
          </mxGeometry>
        </mxCell>
        <mxCell id="Ls10ijSEjIT9bccqlVy2-30" value="markAsSent() / markAsFailed()" style="text;html=1;align=center;verticalAlign=middle;whiteSpace=wrap;rounded=0;" vertex="1" parent="1">
          <mxGeometry x="1200" y="955" width="110" height="30" as="geometry" />
        </mxCell>
        <mxCell id="Ls10ijSEjIT9bccqlVy2-31" value="alt" style="shape=umlFrame;whiteSpace=wrap;html=1;pointerEvents=0;recursiveResize=0;container=1;collapsible=0;width=170;" vertex="1" parent="1">
          <mxGeometry x="660" y="680" width="710" height="130" as="geometry" />
        </mxCell>
        <mxCell id="Ls10ijSEjIT9bccqlVy2-32" value="[authority == null]" style="text;html=1;" vertex="1" parent="Ls10ijSEjIT9bccqlVy2-31">
          <mxGeometry width="100" height="20" relative="1" as="geometry">
            <mxPoint x="30" y="40" as="offset" />
          </mxGeometry>
        </mxCell>
        <mxCell id="Ls10ijSEjIT9bccqlVy2-33" value="[constraint2]" style="line;strokeWidth=1;dashed=1;labelPosition=center;verticalLabelPosition=bottom;align=left;verticalAlign=top;spacingLeft=20;spacingTop=15;html=1;whiteSpace=wrap;" vertex="1" parent="Ls10ijSEjIT9bccqlVy2-31">
          <mxGeometry y="125" width="290" height="10" as="geometry" />
        </mxCell>
        <mxCell id="Ls10ijSEjIT9bccqlVy2-36" value="" style="endArrow=classic;html=1;rounded=0;" edge="1" parent="Ls10ijSEjIT9bccqlVy2-31">
          <mxGeometry width="50" height="50" relative="1" as="geometry">
            <mxPoint x="25" y="100.00000000000023" as="sourcePoint" />
            <mxPoint x="335" y="100.00000000000023" as="targetPoint" />
          </mxGeometry>
        </mxCell>
        <mxCell id="Ls10ijSEjIT9bccqlVy2-3" value="" style="html=1;points=[];perimeter=orthogonalPerimeter;outlineConnect=0;targetShapes=umlLifeline;portConstraint=eastwest;newEdgeStyle={&quot;edgeStyle&quot;:&quot;elbowEdgeStyle&quot;,&quot;elbow&quot;:&quot;vertical&quot;,&quot;curved&quot;:0,&quot;rounded&quot;:0};" vertex="1" parent="Ls10ijSEjIT9bccqlVy2-31">
          <mxGeometry x="335" y="-100" width="10" height="220" as="geometry" />
        </mxCell>
        <mxCell id="Ls10ijSEjIT9bccqlVy2-37" value="getDefaultAuthority()" style="text;html=1;align=center;verticalAlign=middle;whiteSpace=wrap;rounded=0;" vertex="1" parent="Ls10ijSEjIT9bccqlVy2-31">
          <mxGeometry x="50" y="70" width="150" height="30" as="geometry" />
        </mxCell>
        <mxCell id="Ls10ijSEjIT9bccqlVy2-34" value="" style="html=1;verticalAlign=bottom;endArrow=open;dashed=1;endSize=8;curved=0;rounded=0;" edge="1" parent="1" target="Ls10ijSEjIT9bccqlVy2-5">
          <mxGeometry relative="1" as="geometry">
            <mxPoint x="1171" y="895" as="sourcePoint" />
            <mxPoint x="680.5" y="895" as="targetPoint" />
          </mxGeometry>
        </mxCell>
        <mxCell id="Ls10ijSEjIT9bccqlVy2-5" value="" style="html=1;points=[];perimeter=orthogonalPerimeter;outlineConnect=0;targetShapes=umlLifeline;portConstraint=eastwest;newEdgeStyle={&quot;edgeStyle&quot;:&quot;elbowEdgeStyle&quot;,&quot;elbow&quot;:&quot;vertical&quot;,&quot;curved&quot;:0,&quot;rounded&quot;:0};" vertex="1" parent="1">
          <mxGeometry x="1160" y="830" width="10" height="180" as="geometry" />
        </mxCell>
      </root>
    </mxGraphModel>
  </diagram>
</mxfile>
